<?xml version="1.0" encoding="UTF-8"?><svg id="Ebene_1" xmlns="http://www.w3.org/2000/svg" viewBox="0 0 360.81 360"><defs><style>.cls-1{fill:#387b2e;}.cls-2{fill:#81ac26;fill-rule:evenodd;}</style></defs><path class="cls-2" d="M202.12,329.11c83.87,5.43,146.61-73.44,126.44-159.69-52.16,18.22-87.77,47.57-106.97,87.91,22.53-29.63,47.16-51.33,74.01-65.1-41.04,33.66-65.1,64.4-72.2,92.09-12.52,21.98-27.96,38.39-46.04,49.24,13.35-118.79,63.85-173.46,151.2-164.14-5.43,55.36-31.29,96.68-77.76,123.8,31.71-26.85,52.44-57.87,62.46-93.2-14.19,30.6-33.67,53.56-58.29,69.13-26.71,24.2-44.37,44.1-52.86,59.95"/><path class="cls-1" d="M357.21,149.53c13.77,51.75-13.91,121.57-49.94,157.74-32.56,32.54-77.62,52.72-127.28,52.72C80.63,360,0,279.35,0,180,0,90.06,66,15.51,152.2,2.14c3.18,10.28,7.3,20.2,12.23,29.69C89.53,39.62,31.02,103.04,31.02,180s56.23,138.84,130.62,147.73c1.08-9.71,.85-20.48,0-30.18-5.74-55.64-42.12-103.04-93.89-123.52,44.23-5.56,96.82,34.36,111.28,68.02,29.41-63.43,93.08-104.18,163.3-104.18,7.23,0,13.21,5,14.88,11.68m-66.77,68.99l-74.28,106c66.08-16.61,112.81-76.1,112.81-144.53,0-3.62-.14-7.24-.41-10.57-75.11,6.75-133.09,69.07-135.21,144.39l97.09-95.29Z"/><path class="cls-2" d="M267.31,46.86l10.86-10.26c.86-.82,.92-2.19,.12-3.07-.8-.88-2.14-.94-3-.12l-10.86,10.26c-.86,.81-.92,2.19-.12,3.07,.79,.88,2.14,.93,3,.12m-87.31-15.84c32.14,0,62.72,10.13,87.99,28.67-3.64,14.4,7.42,25.42,7.42,25.42l8.16,9.04,19.74-18.64,19.74-18.64-8.16-9.04s-9.85-12.17-24.18-9.6C259.35,13.72,220.53,0,180,0,80.6,0,0,80.6,0,180,10.15,98.21,53.41,44.37,129.64,18.36,84.99,37.42,45.9,69.83,29.07,114.48,61.07,57.59,115.87,31.02,180,31.02Zm101.82,53.18c-.61-.68-.57-1.73,.09-2.36l28.5-26.92c.66-.62,1.7-.58,2.31,.09,.61,.68,.57,1.73-.09,2.36l-28.5,26.92c-.66,.63-1.7,.58-2.31-.09Z"/><path class="cls-2" d="M119.49,128.81c-7.51-12.24-20.59-19.2-33.94-19.47-5.84,12.1-5.57,26.85,1.95,39.09,6.54,10.71,17.39,17.39,28.93,19.06l-5.15-10.15-16-31.85,21.28,28.66,6.68,9.18c3.76-11.13,2.78-23.79-3.76-34.5"/><path class="cls-2" d="M174.43,100.29c-16.97,10.99-28.24,29.91-28.24,51.61,0,18.92,8.62,35.75,22.12,47.02l1.53-16.97,4.59-53.41,4.59,53.41,1.39,16.97c13.49-11.27,22.12-28.1,22.12-47.02,0-21.7-11.13-40.62-28.1-51.61"/><path class="cls-2" d="M329.83,59.84c-1.28-1.42-3.45-1.51-4.84-.2l-38.78,36.62c-1.39,1.31-1.48,3.53-.2,4.95,1.28,1.42,3.45,1.51,4.84,.2l38.78-36.62c1.39-1.31,1.48-3.53,.2-4.95"/><path class="cls-2" d="M326.54,72.34l-5.03,4.75,17.51,19.4c1.28,1.42,3.45,1.51,4.84,.2,1.39-1.31,1.48-3.53,.2-4.95l-17.51-19.4Z"/><path class="cls-2" d="M302.57,94.96l-5.03,4.75,17.51,19.4c1.28,1.42,3.44,1.51,4.83,.2,1.39-1.31,1.48-3.53,.2-4.95l-17.51-19.4Z"/></svg>